<?xml version="1.0" standalone="no"?><svg xmlns="http://www.w3.org/2000/svg" viewBox="0 0 1440 320"><path fill="#e8e3dd" fill-opacity="1" d="M0,192L30,181.3C60,171,120,149,180,154.7C240,160,300,192,360,186.7C420,181,480,139,540,106.7C600,75,660,53,720,80C780,107,840,181,900,224C960,267,1020,277,1080,240C1140,203,1200,117,1260,101.3C1320,85,1380,139,1410,165.3L1440,192L1440,320L1410,320C1380,320,1320,320,1260,320C1200,320,1140,320,1080,320C1020,320,960,320,900,320C840,320,780,320,720,320C660,320,600,320,540,320C480,320,420,320,360,320C300,320,240,320,180,320C120,320,60,320,30,320L0,320Z"></path></svg>